<?xml version="1.0" encoding="utf-8"?>
<!-- Generator: Adobe Illustrator 17.0.0, SVG Export Plug-In . SVG Version: 6.00 Build 0)  -->
<!DOCTYPE svg PUBLIC "-//W3C//DTD SVG 1.1//EN" "http://www.w3.org/Graphics/SVG/1.1/DTD/svg11.dtd">
<svg version="1.1" id="Icons" xmlns="http://www.w3.org/2000/svg" xmlns:xlink="http://www.w3.org/1999/xlink" x="0px" y="0px"
	 width="841.89px" height="595.28px" viewBox="0 0 841.89 595.28" enable-background="new 0 0 841.89 595.28" xml:space="preserve">
<path fill-rule="evenodd" clip-rule="evenodd" d="M643.35,391l2.15,2.15l2.15-2.15l1.85,1.85l-2.15,2.15l2.15,2.15l-1.85,1.85
	l-2.15-2.15l-2.15,2.15l-1.85-1.85l2.15-2.15l-2.15-2.15L643.35,391z M650.5,390h-10v10h10V390z M651.5,402h-12c-0.55,0-1-0.45-1-1
	v-12c0-0.55,0.45-1,1-1h12c0.55,0,1,0.45,1,1v12C652.5,401.55,652.05,402,651.5,402z"/>
<path fill-rule="evenodd" clip-rule="evenodd" d="M593.11,399l-3.61-3.59l1.67-1.65l1.94,1.93l4.72-4.69l1.67,1.66l-4.72,4.68
	L593.11,399z M599.5,392.66V390h-10v5.41V400h10V392.66z M600.5,402h-12c-0.55,0-1-0.45-1-1v-12c0-0.55,0.45-1,1-1h12
	c0.55,0,1,0.45,1,1v12C601.5,401.55,601.05,402,600.5,402z"/>
<path fill-rule="evenodd" clip-rule="evenodd" d="M550.5,390h-10v10h10V390z M551.5,402h-12c-0.55,0-1-0.45-1-1v-12
	c0-0.55,0.45-1,1-1h12c0.55,0,1,0.45,1,1v12C552.5,401.55,552.05,402,551.5,402z"/>
<path fill-rule="evenodd" clip-rule="evenodd" d="M501.38,398.46c0.09,0.08,0.12,0.25,0.06,0.37c-0.06,0.13-0.18,0.17-0.27,0.1
	c0,0-2.52-2.78-4.59-4.33l-0.46-0.34c-1.83,2.77-3.36,5.62-3.36,5.62c-0.05,0.06-0.13,0.1-0.23,0.1s-0.19-0.04-0.24-0.1
	c0,0,0.42,0.57-0.68-0.4c-1.16-1.02,0.74-2.53,0.74-2.53s1.21-1.54,2.8-3.38c-2.56-1.77-5.1-3.22-5.1-3.22
	c-0.06-0.04-0.1-0.13-0.1-0.23s0.04-0.19,0.1-0.24c0,0-0.55,0.43,0.38-0.7c0.98-1.18,2.44,0.75,2.44,0.75s1.39,1.17,3.09,2.71
	l0.05-0.06c1.7-1.92,4.71-4.5,4.71-4.5c0.09-0.1,0.25-0.12,0.37-0.06c0.13,0.06,0.17,0.19,0.09,0.28c0,0-2.73,2.63-4.24,4.77
	l-0.2,0.29l0.32,0.3C498.91,395.39,501.38,398.46,501.38,398.46z"/>
<path fill-rule="evenodd" clip-rule="evenodd" d="M452.09,388.02c-0.12-0.06-0.28-0.04-0.37,0.06c0,0-3.01,2.58-4.71,4.5
	c-1.99,2.24-3.66,4.37-3.66,4.37s-0.8-0.23-1.63-0.63l-2.46-1.2c-0.09-0.09-0.25-0.11-0.36-0.04c-0.12,0.06-0.15,0.19-0.08,0.28
	c0,0,1.41,1.17,2.24,2.08c0.99,1.09,2.23,2.44,2.23,2.44c0.05,0.06,0.14,0.1,0.24,0.1s0.18-0.04,0.23-0.1c0,0,2-3.74,4.18-6.81
	c1.51-2.14,4.24-4.77,4.24-4.77C452.26,388.21,452.22,388.08,452.09,388.02z"/>
<polygon fill-rule="evenodd" clip-rule="evenodd" points="397.5,399.15 395.65,401 393.5,398.85 391.35,401 389.5,399.15 
	391.65,397 389.5,394.85 391.35,393 393.5,395.15 395.65,393 397.5,394.85 395.35,397 "/>
<polygon fill-rule="evenodd" clip-rule="evenodd" points="349.5,394.66 344.78,399.34 343.11,401 339.5,397.41 341.17,395.76 
	343.11,397.69 347.83,393 "/>
<path fill-rule="evenodd" clip-rule="evenodd" d="M294.5,393c-2.21,0-4,1.79-4,4s1.79,4,4,4s4-1.79,4-4S296.71,393,294.5,393z
	 M294.5,403c-3.31,0-6-2.69-6-6s2.69-6,6-6s6,2.69,6,6S297.81,403,294.5,403z"/>
<path fill-rule="evenodd" clip-rule="evenodd" d="M244.97,398.42c0.24,0.54,0.14,1.21-0.31,1.66l-0.53,0.52
	c-0.58,0.58-1.52,0.58-2.1,0l-2.85-2.85c-0.58-0.58-0.58-1.52,0-2.1l0.67-0.71c0.58-0.58,1.15-0.63,2.01,0.14l0.72,0.83l1.08-1.03
	l-1.32-1.33c-0.87-0.87-2.28-0.87-3.16,0l-1.57,1.58c-0.87,0.87-0.87,2.28,0,3.15l3.9,3.9c0.87,0.87,2.28,0.87,3.15,0l1.58-1.58
	c0.87-0.87,0.87-2.28,0-3.15L244.97,398.42z M244.39,398.56c-0.08-0.46-0.57-0.74,0.34-1.42l0.65-0.59c0.58-0.58,1.52-0.58,2.1,0
	l2.57,2.66c0.58,0.58,0.58,1.52,0,2.1l-0.53,0.53c-0.58,0.58-1.52,0.58-2.1,0l-0.47-0.51l-1.04,1c0.91,0.91,0.85,0.9,0.85,0.9
	c0.87,0.87,2.28,0.87,3.16,0l1.57-1.58c0,0,1.25-1.72,0-3.15l-3.52-3.53c-0.87-0.87-2.29-0.87-3.16,0l-1.57,1.58
	c-0.87,0.87-0.87,2.28,0,3.15L244.39,398.56z"/>
<path fill-rule="evenodd" clip-rule="evenodd" d="M196.19,400.25c0-2.23,2.3-2.31,2.3-4.51c0-2.18-1.57-3.76-3.78-3.76
	c-2.21,0-3.74,1.56-3.74,3.76c0,2.24,2.25,2.28,2.25,4.51H196.19z M196.23,401.75V401h-3v0.75h0.75v0.75h-0.74
	c0,0.83,0.69,1.48,1.51,1.48s1.48-0.65,1.48-1.48h-0.75v-0.75H196.23z"/>
<path fill-rule="evenodd" clip-rule="evenodd" d="M644.5,353c0-0.55-0.45-1-1-1h-3c-0.55,0-1,0.45-1,1h-1v2h2h3h9v-2H644.5z
	 M652.5,364l1-8h-16l1,8H652.5z"/>
<path fill-rule="evenodd" clip-rule="evenodd" d="M593.5,352v4h4L593.5,352z M598.5,364h-10c-0.55,0-1-0.45-1-1v-12
	c0-0.55,0.45-1,1-1h5l6,6v7C599.5,363.55,599.05,364,598.5,364z"/>
<path fill-rule="evenodd" clip-rule="evenodd" d="M547.36,352c-1.21,0-2.28,0.51-2.98,1.28c-0.71-0.77-1.78-1.28-2.99-1.28
	c-2.12,0-3.83,1.51-3.83,3.38c0,4.12,3.61,4.66,6.82,8.62c3.47-4.22,6.81-4.5,6.81-8.62C551.19,353.51,549.48,352,547.36,352z"/>
<path d="M495.21,351.5c0,3.56-3.77,4.87-3.77,8.47s3.77,3.53,3.77,3.53s3.77,0.07,3.77-3.53S495.21,355.06,495.21,351.5z"/>
<polygon points="445.48,352.86 446.97,357 451.47,356.99 447.9,359.85 449.18,364.13 445.48,361.62 441.77,364.13 443.05,359.85 
	439.48,356.99 443.98,357 "/>
<polygon points="398.25,352 391.5,358 394.5,358 390.75,364 398.25,356.5 395.25,356.5 "/>
<polygon points="344.5,350 340.5,358 343.5,358 343.5,364 347.5,356 344.5,356 "/>
<path fill-rule="evenodd" clip-rule="evenodd" d="M295.02,356.01c-0.85,0-1.53,0.68-1.53,1.53c0,0.84,0.68,1.53,1.53,1.53
	c0.85,0,1.53-0.69,1.53-1.53C296.55,356.69,295.87,356.01,295.02,356.01z M295.02,360.49c-1.66,0-3-1.35-3-3c0-1.65,1.34-3,3-3
	s2.99,1.35,2.99,3C298.01,359.14,296.68,360.49,295.02,360.49z M295.03,351.5c-3.31,0-6,2.69-6,6c0,3.32,2.69,6,6,6s6-2.68,6-6
	C301.03,354.19,298.34,351.5,295.03,351.5z"/>
<path fill-rule="evenodd" clip-rule="evenodd" d="M244.5,357v2h2v-2H244.5z M244.5,362v-3h-3v3H244.5z M249.5,359h-3v3h3V359z
	 M241.5,357h3v-3h-3V357z M246.5,354v3h3v-3H246.5z"/>
<path fill-rule="evenodd" clip-rule="evenodd" d="M191.5,357h2v-2h-2V357z M195.5,355v2h2v-2H195.5z M191.5,361h2v-2h-2V361z
	 M195.5,361h2v-2h-2V361z"/>
<path fill-rule="evenodd" clip-rule="evenodd" d="M644.83,323l5-5l-5-5l-5,5L644.83,323z M643.06,319.06l1.06-1.06l-1.06-1.06
	l0.71-0.71l1.06,1.06l1.06-1.06l0.71,0.71l-1.06,1.07l1.06,1.05l-0.71,0.71l-1.06-1.06l-1.06,1.06L643.06,319.06z"/>
<path fill-rule="evenodd" clip-rule="evenodd" d="M594.83,323l5-5l-5-5l-5,5L594.83,323z M594.83,319.5l-1.5-1.5l1.5-1.5l1.5,1.5
	L594.83,319.5z"/>
<path d="M548.91,323.34c-0.27,0.41-0.59,0.66-0.96,0.66h-8.76c-0.38,0-0.68-0.3-0.68-0.66v-10.68c0-0.36,0.3-0.66,0.68-0.66h8.76
	c0.37,0,0.69,0.23,0.97,0.66l3.57,5.34L548.91,323.34z"/>
<polygon fill-rule="evenodd" clip-rule="evenodd" points="499.32,319.01 489.51,319.01 489.51,314.99 499.26,314.99 501.51,317 "/>
<path fill-rule="evenodd" clip-rule="evenodd" d="M449.35,313.24l-1.39,1.25l1.48,1.45h-8.04l-1.12-1.94h-2.2l1.67,2.42l-1.67,2.49
	h2.2l1.12-1.94h8.04l-1.45,1.48l1.36,1.22l3.15-3.25L449.35,313.24z M436.44,314h-0.93l1.67,2.42l-1.67,2.49h0.93l1.63-2.49
	L436.44,314z"/>
<polygon points="399.64,313.99 398.49,314.84 399.72,316 392.39,316 391.37,314.97 387.51,314.97 388.57,316.51 387.51,317.99 
	391.37,317.99 392.39,317 399.72,317 398.49,318.08 399.64,318.93 402.51,316.43 "/>
<path fill-rule="evenodd" clip-rule="evenodd" d="M345.5,314v2.89l1.48,1.11l-1.48,1.11V322l4.38-4L345.5,314z M342.5,319h2v-2h-2
	V319z M339.5,319h2v-2h-2V319z"/>
<path fill-rule="evenodd" clip-rule="evenodd" d="M293.96,316.09c-0.78,0-1.41,0.63-1.41,1.41s0.63,1.41,1.41,1.41
	s1.42-0.63,1.42-1.41S294.74,316.09,293.96,316.09z M297.96,316.09c-0.78,0-1.41,0.63-1.41,1.41s0.63,1.41,1.41,1.41
	s1.42-0.63,1.42-1.41S298.74,316.09,297.96,316.09z M293.96,312.09c-0.78,0-1.41,0.63-1.41,1.41s0.63,1.41,1.41,1.41
	s1.42-0.63,1.42-1.41S294.74,312.09,293.96,312.09z M293.96,320.09c-0.78,0-1.41,0.63-1.41,1.41s0.63,1.41,1.41,1.41
	s1.42-0.63,1.42-1.41S294.74,320.09,293.96,320.09z"/>
<path fill-rule="evenodd" clip-rule="evenodd" d="M243.5,319h2v-2h-2V319z M247.5,317v2h2v-2H247.5z M243.5,315h2v-2h-2V315z
	 M243.5,323h2v-2h-2V323z"/>
<path fill-rule="evenodd" clip-rule="evenodd" d="M191.04,316.09c-0.78,0-1.41,0.63-1.41,1.41s0.63,1.41,1.41,1.41
	c0.78,0,1.42-0.63,1.42-1.41S191.82,316.09,191.04,316.09z M195.04,316.09c-0.78,0-1.41,0.63-1.41,1.41s0.63,1.41,1.41,1.41
	c0.78,0,1.42-0.63,1.42-1.41S195.82,316.09,195.04,316.09z M199.04,316.09c-0.78,0-1.41,0.63-1.41,1.41s0.63,1.41,1.41,1.41
	c0.78,0,1.42-0.63,1.42-1.41S199.82,316.09,199.04,316.09z M203.04,316.09c-0.78,0-1.41,0.63-1.41,1.41s0.63,1.41,1.41,1.41
	c0.78,0,1.42-0.63,1.42-1.41S203.82,316.09,203.04,316.09z M199.04,312.09c-0.78,0-1.41,0.63-1.41,1.41s0.63,1.41,1.41,1.41
	c0.78,0,1.42-0.63,1.42-1.41S199.82,312.09,199.04,312.09z M199.04,320.09c-0.78,0-1.41,0.63-1.41,1.41s0.63,1.41,1.41,1.41
	c0.78,0,1.42-0.63,1.42-1.41S199.82,320.09,199.04,320.09z"/>
<path fill-rule="evenodd" clip-rule="evenodd" d="M639.5,279h2v-2h-2V279z M643.5,279h2v-2h-2V279z M647.5,279h2v-2h-2V279z
	 M651.5,277v2h2v-2H651.5z M647.5,275h2v-2h-2V275z M647.5,283h2v-2h-2V283z"/>
<path fill-rule="evenodd" clip-rule="evenodd" d="M592.5,279h1v-1h-1V279z M590.5,279h1v-1h-1V279z M588.5,279h1v-1h-1V279z
	 M594.5,279h1v-1h-1V279z M596.5,279h1v-1h-1V279z M598.5,278v1h1v-1H598.5z M596.5,277h1v-1h-1V277z M596.5,281h1v-1h-1V281z"/>
<path fill-rule="evenodd" clip-rule="evenodd" d="M541.5,279h1v-1h-1V279z M539.5,279h1v-1h-1V279z M543.5,279h1v-1h-1V279z
	 M545.5,279h1v-1h-1V279z M547.5,278v1h1v-1H547.5z M545.5,277h1v-1h-1V277z M543.5,275h1v-1h-1V275z M545.5,281h1v-1h-1V281z
	 M543.5,283h1v-1h-1V283z"/>
<path fill-rule="evenodd" clip-rule="evenodd" d="M492.25,274.33l-1.52,1.47l2.63,2.53l-2.63,2.54l1.52,1.46l4.02-4L492.25,274.33z
	 M495.77,274.33l-0.77,0.75l3.27,3.25l-3.27,3.26l0.77,0.74l4.02-4L495.77,274.33z"/>
<polygon fill-rule="evenodd" clip-rule="evenodd" points="445.36,278.33 442.73,280.87 444.25,282.33 448.27,278.33 444.25,274.33 
	442.73,275.8 "/>
<path fill-rule="evenodd" clip-rule="evenodd" d="M402.49,276.48l-5.89-5.47v3.27c0,0-7.09,0.31-7.09,6.5
	c0,0.76,0.52,1.88,0.96,2.23c0,0-1.21-6,6.13-4.26v3.16L402.49,276.48z"/>
<polygon fill-rule="evenodd" clip-rule="evenodd" points="351.5,276.94 346.42,271.87 346.42,276 339.5,276 339.5,278.04 
	346.42,278.04 346.42,282 "/>
<polygon fill-rule="evenodd" clip-rule="evenodd" points="298.75,277.04 298.72,277 293.12,282.6 292.42,281.9 298.02,276.3 
	292.39,270.67 293.1,269.96 299.46,276.33 "/>
<path fill-rule="evenodd" clip-rule="evenodd" d="M249.76,272.99c0.41,0,0.75,0.36,0.75,0.8v6.42c0,0.44-0.34,0.8-0.75,0.8h-7.52
	c-0.41,0-0.75-0.36-0.75-0.8v-6.42c0-0.44,0.34-0.8,0.75-0.8H249.76z M250.07,271h-8.14c-1.35,0-2.44,1.15-2.44,2.57v6.86
	c0,1.42,1.09,2.57,2.44,2.57h8.14c1.35,0,2.44-1.15,2.44-2.57v-6.86C252.51,272.15,251.42,271,250.07,271z M244.5,274v6l3.94-3.05
	L244.5,274z"/>
<path fill-rule="evenodd" clip-rule="evenodd" d="M198.82,274c0.37,0,0.67,0.3,0.67,0.67v6.66c0,0.37-0.3,0.67-0.67,0.67h-6.66
	c-0.37,0-0.67-0.3-0.67-0.67v-6.66c0-0.37,0.3-0.67,0.67-0.67H198.82z M199.24,272h-7.5c-1.25,0-2.25,1-2.25,2.25v7.5
	c0,1.25,1,2.25,2.25,2.25h7.5c1.24,0,2.25-1,2.25-2.25v-7.5C201.49,273,200.48,272,199.24,272z M195.5,277h-3v2h3v2l2.99-3l-2.99-3
	V277z"/>
<path fill-rule="evenodd" clip-rule="evenodd" d="M640.8,233h-0.91l2.88,6l-2.88,6h0.91l5.42-6L640.8,233z M646.03,233h-0.91l2.88,6
	l-2.88,6h0.91l5.41-6L646.03,233z"/>
<path fill-rule="evenodd" clip-rule="evenodd" d="M600.08,238.28l-4.53-5.07c-0.32-0.37-1.04-0.3-1.04,0.68v5.05v0.15v5.05
	c0,0.99,0.72,1.05,1.04,0.69l4.55-5.1C600.66,239.14,600.56,238.79,600.08,238.28z"/>
<path fill-rule="evenodd" clip-rule="evenodd" d="M546.33,238.01l-5.83-5v9.98L546.33,238.01z M550.51,238.01l-5.83-5v2.15
	l3.32,2.85l-3.32,2.83v2.15L550.51,238.01z"/>
<polygon points="500.5,238.01 492.51,232 492.51,244 "/>
<path fill-rule="evenodd" clip-rule="evenodd" d="M448.33,237.01c-1.65,0-3,1.32-3.13,2.99h-5.7v-6h-1l-0.01,6v0.92h0.9h5.84
	c0.29,1.49,1.57,2.61,3.1,2.61c1.75,0,3.17-1.46,3.17-3.26S450.08,237.01,448.33,237.01z"/>
<circle fill-rule="evenodd" clip-rule="evenodd" cx="395.5" cy="238.99" r="4"/>
<polygon fill-rule="evenodd" clip-rule="evenodd" points="345.5,238 345.5,240 339.5,240 339.5,234 338.5,234 338.49,240.12 
	338.5,241 345.5,241 345.5,243 350.5,243 350.5,238 "/>
<rect x="290.5" y="234" fill-rule="evenodd" clip-rule="evenodd" width="8" height="8"/>
<path fill-rule="evenodd" clip-rule="evenodd" d="M250.46,236.59l-4.35,4.36l-0.4,0.4c-0.22,0.21-0.58,0.21-0.79,0l-0.4-0.4
	l-1.98-1.98c-0.22-0.22-0.22-0.57,0-0.79l0.39-0.4c0.22-0.22,0.58-0.22,0.8,0l1.58,1.59l3.96-3.97c0.22-0.21,0.58-0.21,0.8,0
	l0.39,0.4C250.68,236.02,250.68,236.37,250.46,236.59z M246.5,232c-3.31,0-6,2.69-6,6s2.69,6,6,6s6-2.69,6-6S249.81,232,246.5,232z"
	/>
<path fill-rule="evenodd" clip-rule="evenodd" d="M198.34,240.46l-0.38,0.38c-0.21,0.21-0.55,0.21-0.75,0l-1.71-1.7l-1.71,1.7
	c-0.2,0.21-0.54,0.21-0.75,0l-0.38-0.38c-0.21-0.21-0.21-0.55,0-0.75l1.7-1.71l-1.7-1.71c-0.21-0.2-0.21-0.54,0-0.75l0.38-0.38
	c0.21-0.21,0.55-0.21,0.75,0l1.71,1.7l1.71-1.7c0.2-0.21,0.54-0.21,0.75,0l0.38,0.38c0.21,0.21,0.21,0.55,0,0.75l-1.7,1.71l1.7,1.71
	C198.55,239.91,198.55,240.25,198.34,240.46z M195.5,232c-3.31,0-6,2.69-6,6s2.69,6,6,6s6-2.69,6-6S198.81,232,195.5,232z"/>
<path fill-rule="evenodd" clip-rule="evenodd" d="M647.23,198.25c0,0.3-0.24,0.54-0.54,0.54h-6.41c-0.3,0-0.54-0.24-0.54-0.54v-0.53
	c0-0.3,0.24-0.54,0.54-0.54h6.41c0.3,0,0.54,0.24,0.54,0.54V198.25z M647.72,193.75c-2.34-2.33-6.13-2.33-8.47,0
	c-2.33,2.34-2.33,6.13,0,8.47c2.34,2.33,6.13,2.33,8.47,0C650.05,199.88,650.05,196.09,647.72,193.75z"/>
<path fill-rule="evenodd" clip-rule="evenodd" d="M600.23,198.25c0,0.3-0.24,0.54-0.54,0.54h-2.4v2.4c0,0.3-0.24,0.54-0.54,0.54
	h-0.53c-0.3,0-0.54-0.24-0.54-0.54v-2.4h-2.4c-0.3,0-0.54-0.24-0.54-0.54v-0.53c0-0.3,0.24-0.54,0.54-0.54h2.4v-2.4
	c0-0.3,0.24-0.54,0.54-0.54h0.53c0.3,0,0.54,0.24,0.54,0.54v2.4h2.4c0.3,0,0.54,0.24,0.54,0.54V198.25z M600.72,193.75
	c-2.34-2.33-6.13-2.33-8.47,0c-2.33,2.34-2.33,6.13,0,8.47c2.34,2.33,6.13,2.33,8.47,0C603.05,199.88,603.05,196.09,600.72,193.75z"
	/>
<path fill-rule="evenodd" clip-rule="evenodd" d="M551.17,198.81l-2.1,2.2c-0.15,0.16-0.48,0.13-0.48-0.3v-1.45h-4.43
	c-0.28,0-0.5-0.23-0.51-0.51l0.01-0.5c0-0.28,0.22-0.51,0.5-0.51h4.43v-1.45c0-0.43,0.33-0.46,0.48-0.3l2.09,2.19
	C551.38,198.4,551.43,198.55,551.17,198.81z M547.5,192.5c-3.31,0-6,2.69-6,6s2.69,6,6,6s6-2.69,6-6S550.81,192.5,547.5,192.5z"/>
<path fill-rule="evenodd" clip-rule="evenodd" d="M499.81,198.61l-2.99,3.13c-0.21,0.22-0.68,0.18-0.68-0.42v-3.09v-0.1v-3.1
	c0-0.6,0.47-0.64,0.68-0.41l2.97,3.11C500.11,198.04,500.17,198.25,499.81,198.61z M497.5,192c-3.31,0-6,2.69-6,6s2.69,6,6,6
	s6-2.69,6-6S500.81,192,497.5,192z"/>
<path fill-rule="evenodd" clip-rule="evenodd" d="M446.06,204c3.31,0,6-2.69,6-6s-2.69-6-6-6s-6,2.69-6,6S442.75,204,446.06,204z
	 M446.06,193.2c2.65,0,4.8,2.16,4.8,4.8s-2.15,4.8-4.8,4.8c-2.64,0-4.8-2.16-4.8-4.8S443.42,193.2,446.06,193.2z M449.33,196.25
	l-0.93-0.98l-3.4,3.55l-1.28-1.34l-0.93,0.97l2.17,2.27l0.04-0.03l0.04,0.03L449.33,196.25z"/>
<path fill-rule="evenodd" clip-rule="evenodd" d="M396.79,204c3.3,0,6-2.69,6-6s-2.7-6-6-6c-3.31,0-6,2.69-6,6
	S393.48,204,396.79,204z M396.79,193.2c2.65,0,4.8,2.16,4.8,4.8s-2.15,4.8-4.8,4.8s-4.8-2.16-4.8-4.8S394.14,193.2,396.79,193.2z
	 M399.52,199.63l-1.64-1.63l1.64-1.64l-1.09-1.09l-1.64,1.64l-1.64-1.64l-1.09,1.09l1.64,1.64l-1.64,1.63l1.09,1.09l1.64-1.63
	l1.64,1.63L399.52,199.63z"/>
<path fill-rule="evenodd" clip-rule="evenodd" d="M345.02,204c3.3,0,6-2.69,6-6s-2.7-6-6-6c-3.31,0-6,2.69-6,6
	S341.71,204,345.02,204z M345.02,193.2c2.64,0,4.79,2.16,4.79,4.8s-2.15,4.8-4.79,4.8c-2.65,0-4.81-2.16-4.81-4.8
	S342.37,193.2,345.02,193.2z M342.5,197v2h5v-2H342.5z"/>
<path fill-rule="evenodd" clip-rule="evenodd" d="M296.99,204c3.31,0,6-2.69,6-6s-2.69-6-6-6c-3.3,0-6,2.69-6,6
	S293.69,204,296.99,204z M296.99,193.2c2.65,0,4.8,2.16,4.8,4.8s-2.15,4.8-4.8,4.8c-2.64,0-4.8-2.16-4.8-4.8
	S294.35,193.2,296.99,193.2z M299.18,197.46h-1.64v-1.64h-1.09v1.64h-1.64v1.08h1.64v1.64h1.09v-1.64h1.64V197.46z"/>
<path fill-rule="evenodd" clip-rule="evenodd" d="M246.32,197.41h-3.82v1.3h3.82v2.01l2.79-2.76l-2.79-2.69V197.41z M245.93,202.8
	c-2.65,0-4.8-2.16-4.8-4.8s2.15-4.8,4.8-4.8c2.64,0,4.79,2.16,4.79,4.8S248.57,202.8,245.93,202.8z M245.93,192c-3.31,0-6,2.69-6,6
	s2.69,6,6,6c3.3,0,6-2.69,6-6S249.23,192,245.93,192z"/>
<path fill-rule="evenodd" clip-rule="evenodd" d="M195.93,204c3.3,0,6-2.69,6-6s-2.7-6-6-6c-3.31,0-6,2.69-6,6
	S192.62,204,195.93,204z M195.93,193.2c2.64,0,4.79,2.16,4.79,4.8s-2.15,4.8-4.79,4.8c-2.65,0-4.8-2.16-4.8-4.8
	S193.28,193.2,195.93,193.2z M196.08,198l-1.79,1.72l1.03,1l2.74-2.72l-2.74-2.73l-1.03,1.01L196.08,198z"/>
</svg>
